# xmcd
# 
# Track frame offsets:
#     150
#     15354
#     27616
#     40342
#     52664
#     64421
#     76069
#     87413
#     99818
#     117476
#     131174
#     144246
#     156790
#     173900
# 
# Disc length: 2581
# 
# Revision: 0
# Processed by: cddbd v1.5.2PL0 Copyright (c) Steve Scherf et al.
# Submitted via: fre:ac v1.0.31
# 
DISCID=ae0a130e
DTITLE=Mitch Ryder - Detroit Breakout!
DYEAR=2019
DGENRE=Blues
TTITLE0=Devil Witjh A Blue Dress
TTITLE1=Cool Jerk
TTITLE2=Dirty Water
TTITLE3=If I Could Turn Back The Hands Of Time
TTITLE4=Have Love, Will Travel
TTITLE5=(I'm Not Your) Steppin' Stine
TTITLE6=Dream Baby (How Long Must I Dream)
TTITLE7=(Sittin' On) The Dock Of The Day
TTITLE8=Just My Imagination (Running Away With Me)
TTITLE9=Bad, Bad Leroy Brown
TTITLE10=You Send Me
TTITLE11=Twistin' The Night Away
TTITLE12=If I Had A Hammer
TTITLE13=Shout
EXTD=
EXTT0=
EXTT1=
EXTT2=
EXTT3=
EXTT4=
EXTT5=
EXTT6=
EXTT7=
EXTT8=
EXTT9=
EXTT10=
EXTT11=
EXTT12=
EXTT13=
PLAYORDER=
